<svg height="473pt" viewBox="0 -8 473.77951 473" width="473pt" xmlns="http://www.w3.org/2000/svg"><path d="m404.8125 243.734375h-.023438c-1.195312-.09375-2.394531-.160156-3.605468-.179687v-.027344h-61.398438v.046875c.738282.019531 1.46875.070312 2.199219.117187l-261.894531-.164062c33.464844 0 60.59375 27.128906 60.59375 60.59375s-27.125 60.59375-60.59375 60.59375h321.09375l3.628906-.207032c31.28125-2.382812 55.929688-28.496093 55.929688-60.386718s-24.648438-58-55.929688-60.386719zm0 0" fill="#e0ebfc"/><path d="m274.132812 243.554688v-.027344h-61.402343v.046875c32.640625.945312 58.8125 27.679687 58.8125 60.546875 0 32.871094-26.171875 59.605468-58.8125 60.550781v.042969h61.402343v-.023438c32.984376-.558594 59.558594-27.449218 59.558594-60.570312 0-33.117188-26.574218-60.011719-59.558594-60.566406zm0 0" fill="#f9a7a7"/><path d="m140.683594 304.121094c0 33.46875-27.125 60.59375-60.59375 60.59375-33.464844 0-60.59375-27.125-60.59375-60.59375 0-33.464844 27.128906-60.59375 60.59375-60.59375 33.46875 0 60.59375 27.128906 60.59375 60.59375zm0 0" fill="#e0ebfc"/><path d="m76.09375 344.714844c-22.382812 0-40.59375-18.210938-40.59375-40.59375 0-22.382813 18.210938-40.59375 40.59375-40.59375s40.589844 18.210937 40.589844 40.59375c0 22.382812-18.207032 40.59375-40.589844 40.59375zm0 0" fill="#a4c9ff"/><path d="m80.09375 368.714844c-35.617188 0-64.59375-28.976563-64.59375-64.59375 0-35.617188 28.976562-64.59375 64.59375-64.59375s64.589844 28.976562 64.589844 64.59375c0 35.617187-28.972656 64.59375-64.589844 64.59375zm0-121.183594c-31.207031 0-56.59375 25.386719-56.59375 56.589844 0 31.207031 25.386719 56.59375 56.59375 56.59375s56.589844-25.386719 56.589844-56.59375c0-31.203125-25.386719-56.589844-56.589844-56.589844zm0 0" fill="#3762cc"/><path d="m401.183594 368.714844h-321.089844c-2.207031 0-4-1.792969-4-4 0-2.207032 1.792969-4 4-4 31.207031 0 56.589844-25.386719 56.589844-56.59375 0-31.183594-25.351563-56.554688-56.523438-56.59375h-.070312c-2.207032 0-4-1.789063-4-4 0-2.207032 1.792968-4 4-4h.070312l258.503906.164062c.351563-.105468.730469-.164062 1.117188-.164062h61.398438c.183593 0 .363281.011718.539062.039062 1.132812.027344 2.257812.09375 3.375.179688h.023438c33.433593 2.546875 59.621093 30.828125 59.621093 64.375 0 33.550781-26.1875 61.828125-59.621093 64.378906l-3.707032.210938c-.074218 0-.152344.003906-.226562.003906zm-289.976563-8h289.863281l3.515626-.203125c29.210937-2.222657 52.15625-26.996094 52.15625-56.390625 0-29.390625-22.945313-54.167969-52.234376-56.398438h-.027343c-1.113281-.089844-2.230469-.148437-3.359375-.167968-.132813 0-.261719-.011719-.390625-.027344h-57.609375c-.359375.109375-.742188.164062-1.136719.164062l-230.742187-.144531c19.921874 11.015625 33.441406 32.242187 33.441406 56.574219 0 24.34375-13.535156 45.585937-33.476563 56.59375zm0 0" fill="#3762cc"/><path d="m181.65625 364.714844v38.246094c0 3.566406 4.308594 5.351562 6.828125 2.828124l21.386719-21.382812c1.5625-1.5625 4.09375-1.5625 5.65625 0l21.386718 21.382812c2.519532 2.523438 6.828126.738282 6.828126-2.828124v-38.246094zm0 0" fill="#f9a7a7"/><path d="m274.132812 368.714844h-61.402343c-2.207031 0-4-1.792969-4-4 0-2.164063 1.722656-3.980469 3.886719-4.042969 30.796874-.890625 54.925781-25.730469 54.925781-56.550781 0-30.816406-24.128907-55.65625-54.925781-56.546875-2.164063-.0625-3.886719-1.832031-3.886719-3.996094 0-2.210937 1.792969-4.046875 4-4.046875h61.402343c.179688 0 .359376.011719.535157.039062 34.792969.835938 63.023437 29.699219 63.023437 64.554688 0 34.859375-28.230468 63.722656-63.027344 64.558594-.175781.019531-.355468.03125-.53125.03125zm-61.402343-4.042969h.019531zm29.550781-3.957031h31.398438c.128906-.015625.253906-.023438.382812-.027344 30.671875-.515625 55.628906-25.890625 55.628906-56.566406 0-30.675782-24.957031-56.050782-55.628906-56.566406-.128906 0-.257812-.011719-.382812-.027344h-31.398438c19.9375 10.964844 33.261719 32.128906 33.261719 56.59375s-13.324219 45.632812-33.261719 56.59375zm0 0" fill="#3762cc"/><path d="m239.734375 410.964844c-2.078125 0-4.113281-.808594-5.648437-2.347656l-21.382813-21.382813-21.390625 21.382813c-2.296875 2.300781-5.714844 2.976562-8.71875 1.734374-3-1.242187-4.9375-4.144531-4.9375-7.390624v-38.246094c0-2.207032 1.792969-4 4-4h62.085938c2.210937 0 4 1.792968 4 4v38.246094c0 3.246093-1.9375 6.148437-4.9375 7.390624-.996094.414063-2.039063.613282-3.070313.613282zm-54.078125-42.25v34.246094l21.386719-21.382813c3.121093-3.125 8.195312-3.125 11.316406 0l21.382813 21.382813v-34.246094zm0 0" fill="#3762cc"/><path d="m243.777344 364.714844h-31.046875v84.859375c0 3.5625 4.308593 5.347656 6.828125 2.828125l21.386718-21.386719c1.5625-1.5625 4.09375-1.5625 5.65625 0l21.386719 21.386719c2.519531 2.519531 6.828125.734375 6.828125-2.828125v-84.859375zm0 0" fill="#f9a7a7"/><path d="m270.808594 457.578125c-2.078125 0-4.113282-.8125-5.648438-2.347656l-21.382812-21.386719-21.390625 21.386719c-2.296875 2.296875-5.71875 2.972656-8.71875 1.730469-3-1.238282-4.9375-4.140626-4.9375-7.386719v-84.859375c0-2.207032 1.792969-4 4-4h62.085937c2.210938 0 4 1.792968 4 4v84.859375c0 3.246093-1.9375 6.148437-4.9375 7.386719-.992187.414062-2.035156.617187-3.070312.617187zm-54.078125-88.863281v80.859375l21.386719-21.386719c3.117187-3.117188 8.195312-3.117188 11.3125-.003906l21.386718 21.390625v-80.859375zm0 0" fill="#3762cc"/><path d="m452.890625 243.101562c-5.652344 0-10.230469-4.589843-10.230469-10.253906v-128.78125c0-5.664062 4.578125-10.253906 10.230469-10.253906 5.648437 0 10.230469 4.589844 10.230469 10.253906v128.78125c0 5.664063-4.582032 10.253906-10.230469 10.253906zm0 0" fill="#ffea94"/><path d="m468.671875 281.550781h-31.5625c-2.820313 0-5.109375-2.285156-5.109375-5.105469v-33.003906c0-11.511718 9.335938-20.847656 20.851562-20.847656h.078126c11.515624 0 20.851562 9.332031 20.851562 20.847656v33.003906c-.003906 2.820313-2.289062 5.105469-5.109375 5.105469zm0 0" fill="#ffea94"/><path d="m350.625 123.21875c-28.289062-5.527344-134.222656-23.085938-239.910156-.046875-4.191406.914063-6.914063 3.199219-6.914063 5.695313v57.070312c0 2.589844 2.898438 4.898438 7.3125 5.757812 28.285157 5.527344 134.21875 23.085938 239.90625.050782 4.195313-.914063 6.914063-3.203125 6.914063-5.699219v-57.066406c0-2.59375-2.894532-4.898438-7.308594-5.761719zm0 0" fill="#4671c6"/><path d="m236.140625 207.324219c-59.15625 0-107.175781-8.066407-125.792969-11.703125-6.40625-1.253906-10.542968-5.054688-10.542968-9.6875v-56.949219c0-4.621094 3.949218-8.390625 10.0625-9.722656 105.851562-23.074219 211.628906-5.808594 241.527343.03125 6.40625 1.253906 10.542969 5.054687 10.542969 9.6875v56.949219c0 4.625-3.949219 8.394531-10.0625 9.726562-39.945312 8.703125-79.890625 11.667969-115.734375 11.667969zm-10.527344-91.742188c-35.347656 0-74.695312 2.917969-114.046875 11.496094-2.707031.589844-3.691406 1.691406-3.789062 1.933594l.023437 56.917969c.082031.117187 1.144531 1.265624 4.078125 1.839843 29.519532 5.765625 133.9375 22.8125 238.289063.066407 2.710937-.589844 3.691406-1.691407 3.789062-1.933594l-.023437-56.917969c-.082032-.117187-1.140625-1.269531-4.074219-1.839844-18.386719-3.59375-65.851563-11.5625-124.246094-11.5625zm0 0" fill="#3762cc"/><path d="m455.867188 91.683594-213.304688-85.570313c-5.710938-2.289062-12.058594-2.289062-17.769531 0l-213.246094 85.546875c-10.203125 4.09375-10.011719 18.898438.292969 22.714844l91.960937 34.078125v-19.585937c0-2.496094 2.722657-4.785157 6.917969-5.695313 105.683594-23.039063 211.621094-5.480469 239.90625.046875 4.414062.863281 7.3125 3.171875 7.3125 5.761719v21.554687l97.640625-36.183594c10.28125-3.8125 10.472656-18.582031.289063-22.667968zm0 0" fill="#4671c6"/><path d="m357.933594 154.535156c-.804688 0-1.601563-.246094-2.285156-.714844-1.074219-.75-1.714844-1.976562-1.714844-3.285156v-21.550781c-.082032-.117187-1.140625-1.269531-4.078125-1.839844-29.519531-5.769531-133.933594-22.816406-238.289063-.066406-2.707031.589844-3.691406 1.691406-3.789062 1.933594l.023437 19.441406c0 1.308594-.640625 2.539063-1.714843 3.285156-1.078126.746094-2.449219.925781-3.675782.464844l-91.960937-34.078125c-6.253907-2.316406-10.3593752-8.183594-10.449219-14.949219s3.859375-12.746093 10.058594-15.230469l213.242187-85.542968c6.691407-2.6875 14.058594-2.679688 20.75 0l213.304688 85.570312c6.1875 2.480469 10.128906 8.453125 10.039062 15.207032-.089843 6.75-4.183593 12.605468-10.429687 14.921874l-97.640625 36.183594c-.449219.167969-.921875.25-1.390625.25zm-132.332032-46.945312c59.148438 0 107.175782 8.066406 125.789063 11.703125 6.40625 1.253906 10.542969 5.054687 10.542969 9.6875v15.808593l92.25-34.1875c3.785156-1.402343 5.175781-4.808593 5.210937-7.527343.035157-2.722657-1.265625-6.171875-5.019531-7.675781l-213.304688-85.570313c-4.765624-1.914063-10.019531-1.914063-14.789062 0l-213.242188 85.542969c-3.769531 1.511718-5.074218 4.96875-5.039062 7.703125.039062 2.726562 1.429688 6.144531 5.230469 7.550781l86.570312 32.078125v-13.71875c0-4.625 3.953125-8.390625 10.066407-9.722656 39.945312-8.707031 79.882812-11.671875 115.734374-11.671875zm0 0" fill="#3762cc"/></svg>