<?xml version="1.0" encoding="iso-8859-1"?>
<!-- Generator: Adobe Illustrator 19.0.0, SVG Export Plug-In . SVG Version: 6.00 Build 0)  -->
<svg version="1.1" id="Capa_1" xmlns="http://www.w3.org/2000/svg" xmlns:xlink="http://www.w3.org/1999/xlink" x="0px" y="0px"
	 viewBox="0 0 456 456" style="enable-background:new 0 0 456 456;" xml:space="preserve">
<path style="fill:#603813;" d="M0,364h456v32H0V364z"/>
<path style="fill:#FF3D53;" d="M32,60h80v304H32V60z"/>
<path style="fill:#55D08F;" d="M192,116h80v248h-80V116z"/>
<path style="fill:#F2F2F2;" d="M32,268h80v32H32V268z"/>
<g>
	<path style="fill:#E6E6E6;" d="M192,316h80v48h-80V316z"/>
	<path style="fill:#E6E6E6;" d="M192,164h80v-48h-80V164z"/>
</g>
<g>
	<path style="fill:#29485A;" d="M80,92H64c-4.418,0-8-3.582-8-8c0-4.418,3.582-8,8-8h16c4.418,0,8,3.582,8,8
		C88,88.418,84.418,92,80,92z"/>
	<path style="fill:#29485A;" d="M72,236c-4.418,0-8-3.582-8-8V116c0-4.418,3.582-8,8-8s8,3.582,8,8v112
		C80,232.418,76.418,236,72,236z"/>
</g>
<path style="fill:#FBCC34;" d="M112,60h80v304h-80V60z"/>
<path style="fill:#E6E6E6;" d="M112,268h80v32h-80V268z"/>
<g>
	<path style="fill:#29485A;" d="M160,92h-16c-4.418,0-8-3.582-8-8c0-4.418,3.582-8,8-8h16c4.418,0,8,3.582,8,8
		C168,88.418,164.418,92,160,92z"/>
	<path style="fill:#29485A;" d="M152,236c-4.418,0-8-3.582-8-8V116c0-4.418,3.582-8,8-8s8,3.582,8,8v112
		C160,232.418,156.418,236,152,236z"/>
	<path style="fill:#29485A;" d="M232,292c-4.418,0-8-3.582-8-8v-88c0-4.418,3.582-8,8-8s8,3.582,8,8v88
		C240,288.418,236.418,292,232,292z"/>
</g>
<path style="fill:#6B6D95;" d="M273.615,129.728l74.278-29.71l92.102,230.263l-74.278,29.71L273.615,129.728z"/>
<path style="fill:#F2F2F2;" d="M273.615,129.712l74.278-29.71l17.826,44.567l-74.278,29.71L273.615,129.712z"/>
<path style="fill:#29485A;" d="M373.152,278.84c-3.272,0.003-6.215-1.987-7.432-5.024l-32.68-81.712
	c-1.641-4.102,0.354-8.759,4.456-10.4s8.759,0.354,10.4,4.456l0,0l32.68,81.704c1.644,4.101-0.349,8.758-4.45,10.402
	C375.18,278.645,374.171,278.84,373.152,278.84L373.152,278.84z"/>
<g>
</g>
<g>
</g>
<g>
</g>
<g>
</g>
<g>
</g>
<g>
</g>
<g>
</g>
<g>
</g>
<g>
</g>
<g>
</g>
<g>
</g>
<g>
</g>
<g>
</g>
<g>
</g>
<g>
</g>
</svg>
